<svg width="20" height="20" viewBox="0 0 20 20" fill="none" xmlns="http://www.w3.org/2000/svg">
<path d="M9.2703 0.0131785C9.20777 0.020995 8.985 0.0483528 8.78177 0.0718023C5.28779 0.470444 2.08693 2.94046 0.715133 6.30156C0.210968 7.54048 0.00773847 8.62307 0.00773847 10.0339C0.0116467 10.8977 0.062454 11.4292 0.199243 12.0311C0.242234 12.2265 0.238326 12.2577 0.16016 12.4375C0.0429128 12.6916 -0.0235276 13.1176 0.00773847 13.3911C0.0546375 13.8093 0.187518 14.1845 0.707316 15.4C0.992619 16.0683 1.32091 16.8734 1.43425 17.1861C1.70001 17.9247 2.04003 18.6243 2.30188 18.9643C2.66926 19.4411 3.16952 19.7733 3.71276 19.9023C4.10359 20 4.725 20.0195 5.06893 19.9453C5.41286 19.8749 5.91702 19.6365 6.14761 19.4372L6.31175 19.3004L6.62441 19.4138C7.58585 19.7655 8.94201 20 9.99333 20C11.0525 20 12.5728 19.7303 13.4521 19.3825L13.6436 19.3082L13.8351 19.4568C14.3041 19.828 14.8044 19.9726 15.6212 19.9766C16.1449 19.9766 16.2114 19.9687 16.5006 19.871C16.9266 19.7186 17.2353 19.5271 17.5402 19.2144C17.8489 18.8979 18.0131 18.5969 18.2593 17.8895C18.6736 16.6975 19.0878 15.6892 19.5529 14.7356C19.8539 14.1181 19.9985 13.6725 19.9985 13.3599C19.9985 13.1097 19.9047 12.6916 19.807 12.5001L19.7249 12.3398L19.8031 11.9451C20.315 9.42817 19.7874 6.68066 18.3804 4.54676C16.7702 2.10019 14.3198 0.532977 11.4003 0.0874353C11.0095 0.0288115 9.53216 -0.0259041 9.2703 0.0131785ZM11.0095 1.24037C14.1087 1.61556 16.7585 3.48762 18.1225 6.25857C18.8494 7.7398 19.1621 9.39299 19.0253 10.9876C18.998 11.2846 18.9667 11.5504 18.9589 11.5777C18.9432 11.6168 18.8885 11.609 18.7361 11.5504C18.486 11.4526 17.9075 11.4136 17.6222 11.4761C16.2309 11.7731 14.5973 13.3833 13.5225 15.525C13.2489 16.0683 12.9831 16.7444 12.9206 17.061C12.8503 17.4323 12.8933 17.9677 13.0183 18.2999C13.0769 18.4484 13.1278 18.5969 13.1317 18.6282C13.1356 18.6673 13.03 18.722 12.7877 18.7963C10.9821 19.359 8.99282 19.359 7.16766 18.7884L6.78856 18.6673L6.87064 18.511C7.08559 18.0889 7.15985 17.3502 7.0426 16.846C6.96834 16.5295 6.61269 15.7087 6.3352 15.2124C5.44803 13.6295 4.22084 12.3086 3.1148 11.7536C2.58328 11.4878 2.32924 11.4214 1.84462 11.4253C1.53587 11.4253 1.3639 11.4448 1.22711 11.4956C1.12159 11.5308 1.0317 11.5582 1.02388 11.5504C1.01607 11.5425 0.988711 11.3002 0.961353 11.011C0.820656 9.41253 1.13722 7.7398 1.86416 6.25857C3.20469 3.53061 5.78805 1.6781 8.8404 1.25991C9.28203 1.19738 10.5718 1.18956 11.0095 1.24037ZM2.37614 12.2187C3.56816 12.6251 4.96731 14.2314 5.7646 16.0917C6.11243 16.9125 6.18669 17.2212 6.12416 17.5925C6.03818 18.1123 5.69425 18.5891 5.24871 18.808C4.59994 19.1246 3.65414 18.9799 3.1617 18.4875C2.88421 18.21 2.6888 17.8505 2.30188 16.8929C1.91888 15.955 1.72346 15.5172 1.24666 14.5089C0.836289 13.6413 0.797206 13.5201 0.793298 13.141C0.78939 12.8792 0.805023 12.801 0.883188 12.6642C0.984802 12.4844 1.23493 12.289 1.46161 12.203C1.68047 12.1249 2.12601 12.1327 2.37614 12.2187ZM18.572 12.4063C19.0488 12.6564 19.2481 13.1918 19.0644 13.7351C19.0175 13.8719 18.869 14.2041 18.7322 14.4776C18.3218 15.3023 17.888 16.3614 17.4776 17.5378C17.2471 18.1983 17.1454 18.3859 16.8914 18.6282C16.1879 19.2926 14.9685 19.3356 14.2885 18.722C13.7296 18.2178 13.6007 17.5183 13.9211 16.7171C14.738 14.6652 16.313 12.7893 17.5636 12.375C17.8646 12.2734 18.3492 12.2929 18.572 12.4063Z" fill="currentColor"/>
<path d="M13.159 4.52714C12.3031 4.62485 11.4706 5.20718 11.0994 5.96929C10.8375 6.50081 10.7945 6.71185 10.7984 7.43488C10.8023 8.18527 10.8649 8.47448 11.1658 9.08026C11.6113 9.99088 12.3578 10.6475 13.3153 10.9797C13.6632 11.0969 13.7218 11.1047 14.2142 11.1086C14.6637 11.1086 14.7809 11.0969 15.0154 11.0188C16.0785 10.6631 16.8054 9.7134 16.9031 8.54483C16.9617 7.81789 16.8328 7.1574 16.5006 6.52817C15.7971 5.19154 14.437 4.37863 13.159 4.52714ZM14.2846 5.46903C15.1991 5.84422 15.969 6.72749 16.1879 7.66156C16.2622 7.97422 16.2622 8.61518 16.1879 8.92784C16.012 9.67431 15.4649 10.2684 14.7848 10.4481C14.5191 10.5185 14.011 10.5185 13.7257 10.4403C12.987 10.2488 12.2171 9.58442 11.8654 8.84185C11.6465 8.37677 11.584 8.09147 11.5801 7.57167C11.5723 6.82519 11.7442 6.36402 12.178 5.9263C12.4477 5.65663 12.6431 5.53547 13.0027 5.41431C13.3232 5.30879 13.9524 5.33615 14.2846 5.46903Z" fill="currentColor"/>
<path d="M5.92484 4.58198C4.56867 4.85165 3.45873 6.03194 3.14607 7.53271C3.05227 7.97825 3.0679 8.77163 3.17343 9.15073C3.48218 10.2568 4.43189 11.0423 5.54574 11.1166C6.85891 11.2065 8.1799 10.3857 8.82086 9.08429C9.12179 8.4746 9.18433 8.18539 9.18823 7.43501C9.19214 6.71198 9.14915 6.50093 8.8873 5.96941C8.65671 5.49651 8.19163 5.02752 7.72655 4.80475C7.15985 4.53508 6.54234 4.45692 5.92484 4.58198ZM6.87845 5.40271C7.58976 5.55123 8.16427 6.13747 8.35578 6.90739C8.43394 7.20833 8.42222 7.9548 8.33623 8.27528C8.30106 8.41598 8.19163 8.68956 8.09783 8.88106C7.57412 9.97146 6.24922 10.6984 5.22526 10.46C4.73673 10.3467 4.22475 9.95192 3.98634 9.50247C3.6346 8.83807 3.65805 7.87664 4.04888 7.04027C4.23647 6.64554 4.38499 6.42277 4.65466 6.14919C5.01812 5.774 5.48321 5.51996 6.02645 5.40271C6.33521 5.33236 6.55798 5.33236 6.87845 5.40271Z" fill="currentColor"/>
<path d="M9.42272 11.0697C8.91856 11.1792 8.28933 11.5544 7.98058 11.9296C7.7539 12.211 7.57803 12.5275 7.46078 12.8675C7.35916 13.1763 7.35526 13.1958 7.35526 14.2159C7.35526 15.2359 7.35916 15.2555 7.46078 15.5642C7.70309 16.2794 8.1799 16.8266 8.84039 17.1471C9.57905 17.5066 10.4076 17.5066 11.1463 17.1471C11.8263 16.8149 12.307 16.2482 12.5415 15.5056C12.6275 15.2281 12.6314 15.1539 12.6314 14.1963C12.6275 13.1997 12.6275 13.1763 12.5259 12.8675C12.2757 12.1328 11.8029 11.5934 11.1072 11.2612C10.6147 11.0228 9.96597 10.9525 9.42272 11.0697Z" fill="currentColor"/>
</svg>
