<svg width="36" height="36" viewBox="0 0 36 36" fill="none" xmlns="http://www.w3.org/2000/svg">
<path d="M17.7778 0C14.2617 0 10.8245 1.04265 7.90098 2.9961C4.97744 4.94954 2.69882 7.72605 1.35326 10.9745C0.00770277 14.223 -0.344356 17.7975 0.341603 21.246C1.02756 24.6946 2.72073 27.8623 5.207 30.3486C7.69327 32.8348 10.861 34.528 14.3095 35.214C17.7581 35.8999 21.3326 35.5479 24.581 34.2023C27.8295 32.8567 30.606 30.5781 32.5595 27.6546C34.5129 24.731 35.5556 21.2939 35.5556 17.7778C35.5556 13.0628 33.6826 8.54097 30.3486 5.20699C27.0146 1.87301 22.4927 0 17.7778 0ZM17.5333 28.7222C17.1707 28.7222 16.8163 28.6147 16.5148 28.4132C16.2133 28.2118 15.9783 27.9255 15.8396 27.5905C15.7008 27.2555 15.6645 26.8869 15.7352 26.5312C15.806 26.1756 15.9806 25.8489 16.237 25.5925C16.4934 25.3361 16.82 25.1615 17.1757 25.0908C17.5313 25.02 17.8999 25.0563 18.2349 25.1951C18.5699 25.3339 18.8563 25.5689 19.0577 25.8703C19.2592 26.1718 19.3667 26.5263 19.3667 26.8889C19.3667 27.3751 19.1735 27.8414 18.8297 28.1852C18.4859 28.5291 18.0196 28.7222 17.5333 28.7222ZM19.0556 19.7667V21.6778C19.0532 22.0665 18.9023 22.4395 18.6337 22.7205C18.3652 23.0014 17.9993 23.169 17.6111 23.1889H17.4889C17.2924 23.1963 17.0964 23.1647 16.9122 23.096C16.7281 23.0273 16.5593 22.9228 16.4157 22.7885C16.2721 22.6542 16.1565 22.4928 16.0757 22.3136C15.9948 22.1344 15.9502 21.941 15.9445 21.7444V18.6778C15.9261 18.4996 15.9442 18.3196 15.9975 18.1487C16.0509 17.9778 16.1384 17.8194 16.2548 17.6833C16.3711 17.5472 16.5139 17.4362 16.6745 17.3569C16.8351 17.2776 17.0101 17.2318 17.1889 17.2222C18.9333 17.0889 21.8333 16.4444 21.8333 13.6111C21.8333 11.5778 20.2667 10.2 18.0222 10.2C17.1714 10.214 16.3337 10.412 15.5665 10.7802C14.7994 11.1484 14.1209 11.6783 13.5778 12.3333C13.3724 12.5516 13.1067 12.7039 12.8145 12.7707C12.5223 12.8376 12.2168 12.8161 11.9369 12.7089C11.657 12.6017 11.4153 12.4136 11.2425 12.1687C11.0698 11.9238 10.9737 11.633 10.9667 11.3333C10.9732 10.9145 11.1449 10.5151 11.4445 10.2222C12.2696 9.26694 13.2942 8.50422 14.446 7.98781C15.5979 7.4714 16.849 7.21386 18.1111 7.23333C22.2222 7.23333 25.0889 9.78889 25.0889 13.4556C25.0889 16.8444 22.9 19.1111 19.0556 19.7667Z" fill="url(#paint0_radial_362_1099)" stroke="none" />
<defs>
<radialGradient id="paint0_radial_362_1099" cx="0" cy="0" r="1" gradientTransform="matrix(35.5556 32 -32 305.936 1.39607e-06 3.55555)" gradientUnits="userSpaceOnUse">
<stop offset="0.163462" stop-color="#791CF0"/>
<stop offset="0.466346" stop-color="#674BEA"/>
<stop offset="1" stop-color="#588CE5" stop-opacity="0.933333"/>
</radialGradient>
</defs>
</svg>
