<svg width="20" height="20" viewBox="0 0 20 20" fill="none" xmlns="http://www.w3.org/2000/svg">
<path d="M9.75 18.75C7.96997 18.75 6.22991 18.2222 4.74987 17.2332C3.26983 16.2443 2.11627 14.8387 1.43508 13.1942C0.753895 11.5496 0.575665 9.74002 0.922932 7.99419C1.2702 6.24836 2.12737 4.64472 3.38604 3.38604C4.64471 2.12737 6.24836 1.2702 7.99419 0.922937C9.74002 0.57567 11.5496 0.7539 13.1942 1.43509C14.8387 2.11628 16.2443 3.26983 17.2332 4.74987C18.2222 6.22991 18.75 7.96997 18.75 9.75C18.75 11.238 18.39 12.64 17.75 13.877L18.75 18.75L13.877 17.75C12.641 18.389 11.237 18.75 9.75 18.75Z" stroke="currentColor" stroke-width="1.5" stroke-linecap="round" stroke-linejoin="round"/>
</svg>
