<svg width="17" height="18" viewBox="0 0 17 18" fill="none" xmlns="http://www.w3.org/2000/svg">
<path d="M17 10.5V16C17 16.5304 16.801 17.0391 16.4468 17.4142C16.0925 17.7893 15.6121 18 15.1111 18H1.88889C1.38792 18 0.907478 17.7893 0.553243 17.4142C0.199007 17.0391 0 16.5304 0 16V2C0 1.46957 0.199007 0.960859 0.553243 0.585787C0.907478 0.210714 1.38792 0 1.88889 0H7.08333C7.14535 0 7.20675 0.0129328 7.26404 0.0380602C7.32134 0.0631875 7.37339 0.100017 7.41724 0.146446C7.46109 0.192876 7.49588 0.247995 7.51961 0.308658C7.54334 0.369321 7.55556 0.434339 7.55556 0.5V1.5C7.55556 1.63261 7.5058 1.75979 7.41724 1.85355C7.32869 1.94732 7.20857 2 7.08333 2H1.88889V16H15.1111V10.5C15.1111 10.3674 15.1609 10.2402 15.2494 10.1464C15.338 10.0527 15.4581 10 15.5833 10H16.5278C16.653 10 16.7731 10.0527 16.8617 10.1464C16.9502 10.2402 17 10.3674 17 10.5ZM16.7922 0.5L16.5372 0.23C16.4107 0.0904239 16.2381 0.00801783 16.0556 0H9.91667C9.85465 0 9.79325 0.0129328 9.73595 0.0380602C9.67866 0.0631875 9.6266 0.100017 9.58275 0.146446C9.5389 0.192876 9.50412 0.247995 9.48039 0.308658C9.45666 0.369321 9.44444 0.434339 9.44444 0.5V1.5C9.44444 1.63261 9.4942 1.75979 9.58275 1.85355C9.67131 1.94732 9.79143 2 9.91667 2H13.7794L5.80833 10.44C5.76407 10.4865 5.72894 10.5418 5.70497 10.6027C5.68099 10.6636 5.66865 10.729 5.66865 10.795C5.66865 10.861 5.68099 10.9264 5.70497 10.9873C5.72894 11.0482 5.76407 11.1035 5.80833 11.15L6.46944 11.85C6.51334 11.8969 6.56557 11.9341 6.62312 11.9594C6.68066 11.9848 6.74238 11.9979 6.80472 11.9979C6.86706 11.9979 6.92878 11.9848 6.98633 11.9594C7.04387 11.9341 7.0961 11.8969 7.14 11.85L15.1111 3.42V7.5C15.1111 7.63261 15.1609 7.75978 15.2494 7.85355C15.338 7.94732 15.4581 8 15.5833 8H16.5278C16.653 8 16.7731 7.94732 16.8617 7.85355C16.9502 7.75978 17 7.63261 17 7.5V1C16.9949 0.80811 16.9206 0.62558 16.7922 0.49V0.5Z" fill="currentColor"/>
</svg>
