<svg width="18" height="20" viewBox="0 0 18 20" fill="none" xmlns="http://www.w3.org/2000/svg">
<path d="M2.00015 17.9999H16.0002V6.99991H2.00015M5.00015 -9.34601e-05V1.99991H13.0002V-9.34601e-05H15.0002V1.99991H16.0002C17.1102 1.99991 18.0002 2.88991 18.0002 3.99991V17.9999C18.0002 18.5303 17.7894 19.039 17.4144 19.4141C17.0393 19.7892 16.5306 19.9999 16.0002 19.9999H2.00015C1.46972 19.9999 0.96101 19.7892 0.585938 19.4141C0.210865 19.039 0.000150681 18.5303 0.000150681 17.9999V3.99991C0.000150681 3.46947 0.210865 2.96077 0.585938 2.58569C0.96101 2.21062 1.46972 1.99991 2.00015 1.99991H3.00015V-9.34601e-05M4.00015 10.9999H9.00015V15.9999H4.00015V10.9999Z" fill="#9CA3AF" fill-opacity="0.7"/>
</svg>
