<svg width="20" height="20" viewBox="0 0 20 20" fill="none" xmlns="http://www.w3.org/2000/svg">
<path d="M15.5554 0H1.42857C1.04969 0 0.686328 0.15051 0.418419 0.418419C0.15051 0.686328 0 1.04969 0 1.42857V18.5714C0 18.9503 0.15051 19.3137 0.418419 19.5816C0.686328 19.8495 1.04969 20 1.42857 20H18.5714C18.95 19.9989 19.3127 19.8481 19.5804 19.5804C19.8481 19.3127 19.9989 18.95 20 18.5714V4.44464L15.5554 0ZM3.57143 6.42857V3.57143H12.1429V6.42857H3.57143ZM13.5674 14.4536C13.5349 15.1449 13.3022 15.8119 12.8977 16.3734C12.4931 16.935 11.9341 17.3669 11.2887 17.6166C10.6432 17.8664 9.93907 17.9232 9.26192 17.7802C8.58476 17.6371 7.96375 17.3005 7.47439 16.811C6.98504 16.3216 6.64843 15.7006 6.50549 15.0234C6.36256 14.3462 6.41946 13.6421 6.66927 12.9967C6.91909 12.3512 7.35106 11.7923 7.91265 11.3878C8.47424 10.9833 9.14126 10.7507 9.83259 10.7183C10.3289 10.6965 10.8243 10.7781 11.2874 10.9581C11.7505 11.1381 12.171 11.4125 12.5223 11.7638C12.8735 12.1151 13.1478 12.5357 13.3278 12.9987C13.5077 13.4618 13.5893 13.9573 13.5674 14.4536Z" fill="white"/>
</svg>
