<svg width="25" height="30" viewBox="0 0 25 30" fill="none" xmlns="http://www.w3.org/2000/svg">
<path d="M15.351 3.125H20.9073C21.1406 4.2 21.949 5 22.9167 5C24.0656 5 25 3.87875 25 2.5C25 1.12125 24.0656 0 22.9167 0C21.949 0 21.1406 0.8 20.9073 1.875H14.8573L12.501 5.33125C12.7896 5.575 13.0635 5.83375 13.3208 6.10375L15.351 3.125ZM22.9167 1.25C23.4906 1.25 23.9583 1.81125 23.9583 2.5C23.9583 3.18875 23.4906 3.75 22.9167 3.75C22.3427 3.75 21.875 3.18875 21.875 2.5C21.875 1.81125 22.3427 1.25 22.9167 1.25ZM22.9167 25C21.949 25 21.1406 25.8 20.9073 26.875H15.351L13.3198 23.8963C13.0625 24.1663 12.7896 24.425 12.5 24.6688L14.8562 28.125H20.9062C21.1396 29.2 21.9479 30 22.9156 30C24.0646 30 24.999 28.8788 24.999 27.5C24.999 26.1212 24.0656 25 22.9167 25ZM22.9167 28.75C22.3427 28.75 21.875 28.1887 21.875 27.5C21.875 26.8113 22.3427 26.25 22.9167 26.25C23.4906 26.25 23.9583 26.8113 23.9583 27.5C23.9583 28.1887 23.4906 28.75 22.9167 28.75ZM22.9167 12.5C21.949 12.5 21.1406 13.3 20.9073 14.375H16.6667V15.625H20.9073C21.1406 16.7 21.949 17.5 22.9167 17.5C24.0656 17.5 25 16.3788 25 15C25 13.6212 24.0656 12.5 22.9167 12.5ZM22.9167 16.25C22.3427 16.25 21.875 15.6887 21.875 15C21.875 14.3113 22.3427 13.75 22.9167 13.75C23.4906 13.75 23.9583 14.3113 23.9583 15C23.9583 15.6887 23.4906 16.25 22.9167 16.25ZM7.29167 6.25C3.27083 6.25 0 10.175 0 15C0 19.825 3.27083 23.75 7.29167 23.75C11.3125 23.75 14.5833 19.825 14.5833 15C14.5833 10.175 11.3125 6.25 7.29167 6.25ZM7.29167 22.5C3.84479 22.5 1.04167 19.1363 1.04167 15C1.04167 10.8637 3.84479 7.5 7.29167 7.5C10.7385 7.5 13.5417 10.8637 13.5417 15C13.5417 19.1363 10.7385 22.5 7.29167 22.5ZM10.4573 17.0875C10.4573 18.3488 9.62396 19.375 8.6 19.375H7.8125V21.25H6.77083V19.375H6.02396C5 19.375 4.16667 18.3488 4.16667 17.0875V16.875H5.20833V17.0875C5.20833 17.66 5.57396 18.125 6.02396 18.125H8.6C9.05 18.125 9.41562 17.6588 9.41562 17.0875C9.41562 16.6238 9.17083 16.2125 8.81979 16.0888L5.59687 15.1175C4.78542 14.83 4.23333 13.9262 4.23333 12.9125C4.23333 11.6512 5.06667 10.625 6.09062 10.625H6.77083V8.75H7.8125V10.625H8.55937C9.58333 10.625 10.4167 11.6512 10.4167 12.9125V13.1575H9.375V12.9125C9.375 12.34 9.00937 11.875 8.55937 11.875H6.08958C5.63958 11.875 5.27396 12.3412 5.27396 12.9125C5.27396 13.3762 5.51875 13.7875 5.86979 13.9112L9.09271 14.8825C9.90417 15.17 10.4573 16.0738 10.4573 17.0875Z" fill="#64748B"/>
</svg>
