<svg width="20" height="24" viewBox="0 0 20 24" fill="none" xmlns="http://www.w3.org/2000/svg">
<path d="M0 2.4C0 1.76348 0.263392 1.15303 0.732233 0.702944C1.20107 0.252856 1.83696 0 2.5 0H12.5C12.8315 6.79649e-05 13.1494 0.126541 13.3837 0.3516L19.6338 6.3516C19.8682 6.57659 19.9999 6.88177 20 7.2V21.6C20 22.2365 19.7366 22.847 19.2678 23.2971C18.7989 23.7471 18.163 24 17.5 24H2.5C1.83696 24 1.20107 23.7471 0.732233 23.2971C0.263392 22.847 0 22.2365 0 21.6V2.4ZM16.9825 7.2L12.5 2.8968V7.2H16.9825ZM10 2.4H2.5V21.6H17.5V9.6H11.25C10.9185 9.6 10.6005 9.47357 10.3661 9.24853C10.1317 9.02348 10 8.71826 10 8.4V2.4ZM5 13.2C5 12.8817 5.1317 12.5765 5.36612 12.3515C5.60054 12.1264 5.91848 12 6.25 12H13.75C14.0815 12 14.3995 12.1264 14.6339 12.3515C14.8683 12.5765 15 12.8817 15 13.2C15 13.5183 14.8683 13.8235 14.6339 14.0485C14.3995 14.2736 14.0815 14.4 13.75 14.4H6.25C5.91848 14.4 5.60054 14.2736 5.36612 14.0485C5.1317 13.8235 5 13.5183 5 13.2ZM5 18C5 17.6817 5.1317 17.3765 5.36612 17.1515C5.60054 16.9264 5.91848 16.8 6.25 16.8H13.75C14.0815 16.8 14.3995 16.9264 14.6339 17.1515C14.8683 17.3765 15 17.6817 15 18C15 18.3183 14.8683 18.6235 14.6339 18.8485C14.3995 19.0736 14.0815 19.2 13.75 19.2H6.25C5.91848 19.2 5.60054 19.0736 5.36612 18.8485C5.1317 18.6235 5 18.3183 5 18Z" fill="#7F0DF2"/>
</svg>
