<svg width="22" height="23" viewBox="0 0 22 23" fill="none" xmlns="http://www.w3.org/2000/svg">
<path d="M3.82609 8.625H8.6087V9.58333H3.82609V8.625ZM8.6087 4.79167H3.82609V5.75H8.6087V4.79167ZM0.956522 22.0417H15.3043V23H0V2.39583C0 1.07525 1.07322 0 2.3913 0H12.1545L19.1304 6.98913V7.66667H11.4783V0.958333H2.3913C1.60026 0.958333 0.956522 1.60329 0.956522 2.39583V22.0417ZM12.4348 6.70833H17.4977L12.4348 1.63587V6.70833ZM22 14.375V13.8958C22 12.5752 20.9277 11.5 19.6087 11.5H18.6522V9.58333H17.6957V11.5H16.7391C15.4201 11.5 14.3478 12.5752 14.3478 13.8958C14.3478 15.2087 15.2862 16.3118 16.5803 16.5207L19.6163 17.0095C20.4428 17.1427 21.0435 17.848 21.0435 18.6875C21.0435 19.48 20.3997 20.125 19.6087 20.125H16.7391C15.9481 20.125 15.3043 19.48 15.3043 18.6875V18.2083H14.3478V18.6875C14.3478 20.0081 15.4201 21.0833 16.7391 21.0833H17.6957V23H18.6522V21.0833H19.6087C20.9277 21.0833 22 20.0081 22 18.6875C22 17.3746 21.0617 16.2715 19.7675 16.0626L16.7315 15.5739C15.905 15.4407 15.3043 14.7353 15.3043 13.8958C15.3043 13.1033 15.9481 12.4583 16.7391 12.4583H19.6087C20.3997 12.4583 21.0435 13.1033 21.0435 13.8958V14.375H22ZM12.4836 13.4167C12.5209 13.0841 12.5907 12.764 12.6997 12.4583H3.82609V18.2083H12.4348V17.25H4.78261V13.4167H12.4836Z" fill="#64748B"/>
</svg>
