<svg width="22" height="19" viewBox="0 0 22 19" fill="none" xmlns="http://www.w3.org/2000/svg">
<path d="M17.6 12.6667H15.4V14.7778H17.6M17.6 8.44444H15.4V10.5556H17.6M19.8 16.8889H11V14.7778H13.2V12.6667H11V10.5556H13.2V8.44444H11V6.33333H19.8M8.8 4.22222H6.6V2.11111H8.8M8.8 8.44444H6.6V6.33333H8.8M8.8 12.6667H6.6V10.5556H8.8M8.8 16.8889H6.6V14.7778H8.8M4.4 4.22222H2.2V2.11111H4.4M4.4 8.44444H2.2V6.33333H4.4M4.4 12.6667H2.2V10.5556H4.4M4.4 16.8889H2.2V14.7778H4.4M11 4.22222V0H0V19H22V4.22222H11Z" fill="currentColor"/>
</svg>
