<svg width="24" height="23" viewBox="0 0 24 23" fill="none" xmlns="http://www.w3.org/2000/svg">
<path fill-rule="evenodd" clip-rule="evenodd" d="M8 0C6.58551 0 5.22896 0.605802 4.22876 1.68414C3.22857 2.76247 2.66667 4.22501 2.66667 5.75C2.66667 7.27499 3.22857 8.73753 4.22876 9.81586C5.22896 10.8942 6.58551 11.5 8 11.5C9.41449 11.5 10.771 10.8942 11.7712 9.81586C12.7714 8.73753 13.3333 7.27499 13.3333 5.75C13.3333 4.22501 12.7714 2.76247 11.7712 1.68414C10.771 0.605802 9.41449 0 8 0ZM5.33333 12.9375C3.91885 12.9375 2.56229 13.5433 1.5621 14.6216C0.561903 15.7 0 17.1625 0 18.6875V20.125C0 20.8875 0.280951 21.6188 0.781048 22.1579C1.28115 22.6971 1.95942 23 2.66667 23H13.3333C14.0406 23 14.7189 22.6971 15.219 22.1579C15.719 21.6188 16 20.8875 16 20.125V18.6875C16 17.1625 15.4381 15.7 14.4379 14.6216C13.4377 13.5433 12.0812 12.9375 10.6667 12.9375H5.33333ZM16 11.5C16 11.1188 16.1405 10.7531 16.3905 10.4835C16.6406 10.214 16.9797 10.0625 17.3333 10.0625H18.6667V8.625C18.6667 8.24375 18.8071 7.87812 19.0572 7.60853C19.3072 7.33895 19.6464 7.1875 20 7.1875C20.3536 7.1875 20.6928 7.33895 20.9428 7.60853C21.1929 7.87812 21.3333 8.24375 21.3333 8.625V10.0625H22.6667C23.0203 10.0625 23.3594 10.214 23.6095 10.4835C23.8595 10.7531 24 11.1188 24 11.5C24 11.8812 23.8595 12.2469 23.6095 12.5165C23.3594 12.786 23.0203 12.9375 22.6667 12.9375H21.3333V14.375C21.3333 14.7562 21.1929 15.1219 20.9428 15.3915C20.6928 15.661 20.3536 15.8125 20 15.8125C19.6464 15.8125 19.3072 15.661 19.0572 15.3915C18.8071 15.1219 18.6667 14.7562 18.6667 14.375V12.9375H17.3333C16.9797 12.9375 16.6406 12.786 16.3905 12.5165C16.1405 12.2469 16 11.8812 16 11.5Z" fill="currentColor"/>
</svg>
