<svg width="19" height="19" viewBox="0 0 19 19" fill="none" xmlns="http://www.w3.org/2000/svg">
<path d="M4.08579 7.08579H7.08579V4.08579L3.58579 0.585792C4.70542 0.0510651 5.96329 -0.123402 7.18619 0.0864138C8.40909 0.29623 9.53686 0.880009 10.4142 1.75736C11.2916 2.63472 11.8754 3.76249 12.0852 4.98539C12.295 6.20829 12.1205 7.46616 11.5858 8.58579L17.5858 14.5858C17.9836 14.9836 18.2071 15.5232 18.2071 16.0858C18.2071 16.6484 17.9836 17.188 17.5858 17.5858C17.188 17.9836 16.6484 18.2071 16.0858 18.2071C15.5232 18.2071 14.9836 17.9836 14.5858 17.5858L8.58579 11.5858C7.46616 12.1205 6.20829 12.295 4.98539 12.0852C3.76249 11.8754 2.63472 11.2916 1.75736 10.4142C0.880009 9.53686 0.29623 8.40909 0.0864138 7.18619C-0.123402 5.96329 0.0510651 4.70542 0.585792 3.58579L4.08579 7.08579Z" fill="currentColor"/>
</svg>
