<svg width="28" height="28" viewBox="0 0 28 28" fill="none" xmlns="http://www.w3.org/2000/svg">
<path d="M3.09531 27.86C2.24403 27.86 1.51555 27.5571 0.909849 26.9514C0.304152 26.3457 0.00078771 25.6167 -0.000244141 24.7644V3.09556C-0.000244141 2.24428 0.30312 1.51579 0.909849 0.910098C1.51658 0.304402 2.24506 0.00103719 3.09531 5.33715e-06H15.4775C15.9161 5.33715e-06 16.2839 0.148592 16.5811 0.445765C16.8783 0.742938 17.0263 1.11028 17.0253 1.54778C17.0243 1.98529 16.8757 2.35314 16.5795 2.65135C16.2834 2.94955 15.9161 3.09762 15.4775 3.09556H3.09531V24.7644H24.7642V12.3822C24.7642 11.9437 24.9128 11.5763 25.2099 11.2802C25.5071 10.9841 25.8745 10.8355 26.312 10.8344C26.7495 10.8334 27.1173 10.982 27.4155 11.2802C27.7137 11.5784 27.8618 11.9457 27.8597 12.3822V24.7644C27.8597 25.6157 27.5569 26.3447 26.9512 26.9514C26.3455 27.5582 25.6165 27.861 24.7642 27.86H3.09531ZM9.28642 21.6689C8.84788 21.6689 8.48054 21.5203 8.1844 21.2231C7.88826 20.9259 7.73967 20.5586 7.73864 20.1211C7.73761 19.6836 7.88619 19.3163 8.1844 19.0191C8.4826 18.7219 8.84994 18.5733 9.28642 18.5733H18.5731C19.0116 18.5733 19.3795 18.7219 19.6766 19.0191C19.9738 19.3163 20.1219 19.6836 20.1209 20.1211C20.1198 20.5586 19.9712 20.9265 19.6751 21.2247C19.379 21.5229 19.0116 21.6709 18.5731 21.6689H9.28642ZM9.28642 17.0255C8.84788 17.0255 8.48054 16.877 8.1844 16.5798C7.88826 16.2826 7.73967 15.9153 7.73864 15.4778C7.73761 15.0403 7.88619 14.6729 8.1844 14.3758C8.4826 14.0786 8.84994 13.93 9.28642 13.93H18.5731C19.0116 13.93 19.3795 14.0786 19.6766 14.3758C19.9738 14.6729 20.1219 15.0403 20.1209 15.4778C20.1198 15.9153 19.9712 16.2831 19.6751 16.5813C19.379 16.8795 19.0116 17.0276 18.5731 17.0255H9.28642ZM9.28642 12.3822C8.84788 12.3822 8.48054 12.2336 8.1844 11.9365C7.88826 11.6393 7.73967 11.2719 7.73864 10.8344C7.73761 10.3969 7.88619 10.0296 8.1844 9.73243C8.4826 9.43525 8.84994 9.28667 9.28642 9.28667H18.5731C19.0116 9.28667 19.3795 9.43525 19.6766 9.73243C19.9738 10.0296 20.1219 10.3969 20.1209 10.8344C20.1198 11.2719 19.9712 11.6398 19.6751 11.938C19.379 12.2362 19.0116 12.3843 18.5731 12.3822H9.28642ZM22.1144 8.84245C21.8172 8.54528 21.6686 8.17743 21.6686 7.73889V6.19111H20.1209C19.6823 6.19111 19.315 6.04253 19.0188 5.74535C18.7227 5.44818 18.5741 5.08084 18.5731 4.64334C18.572 4.20583 18.7206 3.83849 19.0188 3.54132C19.317 3.24415 19.6844 3.09556 20.1209 3.09556H21.6686V1.54778C21.6686 1.10925 21.8172 0.741906 22.1144 0.445765C22.4116 0.149624 22.7789 0.00103719 23.2164 5.33715e-06C23.6539 -0.00102651 24.0218 0.14756 24.32 0.445765C24.6182 0.74397 24.7662 1.11131 24.7642 1.54778V3.09556H26.312C26.7505 3.09556 27.1184 3.24415 27.4155 3.54132C27.7127 3.83849 27.8608 4.20583 27.8597 4.64334C27.8587 5.08084 27.7101 5.44869 27.414 5.7469C27.1178 6.0451 26.7505 6.19318 26.312 6.19111H24.7642V7.73889C24.7642 8.17743 24.6156 8.54528 24.3184 8.84245C24.0213 9.13963 23.6539 9.2877 23.2164 9.28667C22.7789 9.28563 22.4116 9.13705 22.1144 8.84091" fill="white"/>
</svg>
