<svg width="22" height="22" viewBox="0 0 22 22" fill="none" xmlns="http://www.w3.org/2000/svg">
<path d="M17.9065 0.000499964C20.356 0.000499964 21.5745 1.219 21.5745 3.633V17.9425C21.5745 20.3565 20.356 21.575 17.9065 21.575H3.68C1.2425 21.575 0 20.368 0 17.9425V3.6325C0 1.207 1.2425 0 3.68 0L17.9065 0.000499964ZM6.7875 7.7875H5.7875C5.52228 7.7875 5.26793 7.89286 5.08039 8.08039C4.89286 8.26793 4.7875 8.52228 4.7875 8.7875V15.7875C4.7875 16.0527 4.89286 16.3071 5.08039 16.4946C5.26793 16.6821 5.52228 16.7875 5.7875 16.7875H6.7875C7.05272 16.7875 7.30707 16.6821 7.49461 16.4946C7.68214 16.3071 7.7875 16.0527 7.7875 15.7875V8.7875C7.7875 8.52228 7.68214 8.26793 7.49461 8.08039C7.30707 7.89286 7.05272 7.7875 6.7875 7.7875ZM11.2875 4.7875H10.2875C10.0223 4.7875 9.76793 4.89286 9.58039 5.08039C9.39286 5.26793 9.2875 5.52228 9.2875 5.7875V15.7875C9.2875 16.0527 9.39286 16.3071 9.58039 16.4946C9.76793 16.6821 10.0223 16.7875 10.2875 16.7875H11.2875C11.5527 16.7875 11.8071 16.6821 11.9946 16.4946C12.1821 16.3071 12.2875 16.0527 12.2875 15.7875V5.7875C12.2875 5.52228 12.1821 5.26793 11.9946 5.08039C11.8071 4.89286 11.5527 4.7875 11.2875 4.7875ZM15.7875 10.7875H14.7875C14.5223 10.7875 14.2679 10.8929 14.0804 11.0804C13.8929 11.2679 13.7875 11.5223 13.7875 11.7875V15.7875C13.7875 16.0527 13.8929 16.3071 14.0804 16.4946C14.2679 16.6821 14.5223 16.7875 14.7875 16.7875H15.7875C16.0527 16.7875 16.3071 16.6821 16.4946 16.4946C16.6821 16.3071 16.7875 16.0527 16.7875 15.7875V11.7875C16.7875 11.5223 16.6821 11.2679 16.4946 11.0804C16.3071 10.8929 16.0527 10.7875 15.7875 10.7875Z" fill="#0094C0"/>
</svg>
