<svg width="24" height="24" viewBox="0 0 24 24" fill="none" xmlns="http://www.w3.org/2000/svg">
<path d="M17.5 0C13.91 0 11 2.91 11 6.5C11 10.09 13.91 13 17.5 13C21.09 13 24 10.09 24 6.5C24 2.91 21.09 0 17.5 0ZM20.691 9.653C19.879 10.483 18.752 11 17.5 11C16.272 11 15.173 10.493 14.367 9.689L13.672 10.384C13.424 10.632 13 10.456 13 10.106V7.58C13 7.26 13.259 7.001 13.579 7.001H16.105C16.456 7.001 16.631 7.425 16.383 7.673L15.776 8.28C16.225 8.718 16.824 9.001 17.499 9.001C18.174 9.001 18.788 8.726 19.237 8.285C19.408 8.117 19.71 8.001 20.011 8.001C20.873 8.001 21.292 9.038 20.69 9.654L20.691 9.653ZM22 5.421C22 5.741 21.741 6 21.421 6H18.895C18.544 6 18.369 5.576 18.617 5.328L19.224 4.721C18.775 4.283 18.176 4 17.501 4C16.826 4 16.212 4.275 15.763 4.716C15.592 4.884 15.325 5 14.989 5C14.127 5 13.708 3.963 14.31 3.347C15.122 2.517 16.249 2 17.501 2C18.729 2 19.828 2.506 20.634 3.311L21.329 2.616C21.577 2.368 22.001 2.544 22.001 2.894V5.42L22 5.421ZM9.76 3H5.276C5.898 1.258 7.547 0 9.5 0H12.028C11.064 0.813 10.287 1.837 9.76 3ZM9 6.5C9 5.987 9.053 5.488 9.14 5H4.5C2.019 5 0 7.019 0 9.5V19.5C0 21.981 2.019 24 4.5 24H11.5C13.981 24 16 21.981 16 19.5V14.86C12.022 14.15 9 10.682 9 6.5ZM7.25 20H7V21C7 21.552 6.553 22 6 22C5.447 22 5 21.552 5 21V20H4.516C3.4 20 2.554 19.226 2.135 18.501C1.858 18.023 2.022 17.411 2.499 17.135C2.976 16.858 3.589 17.021 3.865 17.499C4.031 17.785 4.31 18 4.515 18H7.249C7.662 18 7.999 17.664 7.999 17.25C7.999 16.98 7.806 16.752 7.54 16.708L4.165 16.27C2.895 16.059 1.999 15.001 1.999 13.75C1.999 12.233 3.232 11 4.749 11H4.999V10C4.999 9.448 5.446 9 5.999 9C6.552 9 6.999 9.448 6.999 10V11H7.483C8.599 11 9.445 11.774 9.864 12.499C10.141 12.977 9.977 13.589 9.5 13.865C9.023 14.141 8.41 13.978 8.134 13.501C7.968 13.215 7.689 13 7.484 13H4.75C4.337 13 4 13.337 4 13.75C4 14.02 4.193 14.247 4.459 14.292L7.834 14.73C9.104 14.941 10 15.999 10 17.25C10 18.767 8.767 20 7.25 20ZM21 14.24V14.5C21 16.453 19.742 18.102 18 18.724V14.975C19.065 14.913 20.076 14.659 21 14.24Z" fill="currentColor"/>
</svg>
