<svg width="28" height="28" viewBox="0 0 28 28" fill="none" xmlns="http://www.w3.org/2000/svg">
<path d="M23.2164 19.7912C22.0401 19.7912 20.9876 20.2129 20.1828 20.8735L9.14712 15.0402C9.22451 14.7169 9.28642 14.3936 9.28642 14.0562C9.28642 13.7189 9.22451 13.3956 9.14712 13.0723L20.059 7.29518C20.8948 7.99799 21.9937 8.43373 23.2164 8.43373C25.7857 8.43373 27.8598 6.5502 27.8598 4.21687C27.8598 1.88353 25.7857 0 23.2164 0C20.6471 0 18.5731 1.88353 18.5731 4.21687C18.5731 4.55422 18.635 4.87751 18.7124 5.2008L7.80056 10.9779C6.96476 10.2751 5.86583 9.83936 4.64309 9.83936C2.07378 9.83936 -0.000244141 11.7229 -0.000244141 14.0562C-0.000244141 16.3896 2.07378 18.2731 4.64309 18.2731C5.86583 18.2731 6.96476 17.8373 7.80056 17.1345L18.8207 22.9819C18.7433 23.2771 18.6969 23.5863 18.6969 23.8956C18.6969 26.1586 20.7245 28 23.2164 28C25.7083 28 27.7359 26.1586 27.7359 23.8956C27.7359 21.6325 25.7083 19.7912 23.2164 19.7912Z" fill="white"/>
</svg>
