<svg width="24" height="19" viewBox="0 0 24 19" fill="none" xmlns="http://www.w3.org/2000/svg">
<path d="M0 3.75C0 2.75544 0.395088 1.80161 1.09835 1.09835C1.80161 0.395088 2.75544 0 3.75 0H20.246C21.2406 0 22.1944 0.395088 22.8977 1.09835C23.6009 1.80161 23.996 2.75544 23.996 3.75V3.76L11.996 9.907L0 3.764V3.75ZM0 5.449V15.25C0 16.2446 0.395088 17.1984 1.09835 17.9017C1.80161 18.6049 2.75544 19 3.75 19H20.246C21.2406 19 22.1944 18.6049 22.8977 17.9017C23.6009 17.1984 23.996 16.2446 23.996 15.25V5.446L12.338 11.418C12.2322 11.4722 12.1149 11.5005 11.996 11.5005C11.8771 11.5005 11.7598 11.4722 11.654 11.418L0 5.449Z" fill="currentColor"/>
</svg>
