<svg width="18" height="19" viewBox="0 0 18 19" fill="none" xmlns="http://www.w3.org/2000/svg">
  <path 
    d="M17.4128 10.0015C17.7908 9.48963 18 8.86253 18 8.21006C18 7.17487 17.4353 6.19501 16.5263 5.6486C16.2922 5.50795 16.0258 5.43392 15.7545 5.43418H10.359L10.494 2.60067C10.5255 1.91592 10.2893 1.26576 9.83025 0.770069C9.60499 0.525746 9.33323 0.331354 9.03176 0.198905C8.73029 0.066457 8.40551 -0.0012335 8.0775 1.70153e-05C6.9075 1.70153e-05 5.8725 0.806957 5.562 1.96203L3.62925 9.13227H0.72C0.32175 9.13227 0 9.46197 0 9.87005V18.2622C0 18.6703 0.32175 19 0.72 19H14.2493C14.4563 19 14.6588 18.9585 14.8455 18.8755C15.9165 18.4075 16.6073 17.3354 16.6073 16.1457C16.6073 15.8552 16.5668 15.5694 16.4858 15.2927C16.8638 14.7809 17.073 14.1537 17.073 13.5013C17.073 13.2108 17.0325 12.9249 16.9515 12.6482C17.3295 12.1364 17.5388 11.5093 17.5388 10.8568C17.5343 10.5663 17.4938 10.2781 17.4128 10.0015ZM1.62 17.34V10.7923H3.4425V17.34H1.62ZM15.939 9.20144L15.4463 9.63949L15.759 10.2251C15.862 10.418 15.9155 10.6346 15.9143 10.8545C15.9143 11.2349 15.7523 11.5969 15.4733 11.8459L14.9805 12.284L15.2933 12.8696C15.3963 13.0625 15.4497 13.2791 15.4485 13.499C15.4485 13.8794 15.2865 14.2414 15.0075 14.4904L14.5148 14.9284L14.8275 15.514C14.9305 15.7069 14.984 15.9235 14.9828 16.1434C14.9828 16.6599 14.6858 17.1256 14.2268 17.3377H4.8825V10.7185L7.12125 2.407C7.17898 2.19397 7.3029 2.00603 7.47424 1.87165C7.64557 1.73727 7.85499 1.66378 8.07075 1.66231C8.24175 1.66231 8.4105 1.71304 8.5455 1.81679C8.76825 1.9874 8.8875 2.24562 8.874 2.51998L8.658 7.09417H15.732C16.1325 7.34548 16.38 7.7697 16.38 8.21006C16.38 8.59047 16.218 8.95014 15.939 9.20144Z" 
    fill="currentColor"
    stroke="none"
  />
</svg>